<?xml version="1.0" encoding="UTF-8" standalone="yes"?><svg id="svg10" xmlns="http://www.w3.org/2000/svg" xmlns:xlink="http://www.w3.org/1999/xlink" version="1.2" baseProfile="tiny" x="0" y="0" width="61" height="86" viewBox="0 0 61.4551 86.0976"><defs><linearGradient id="wps{0f37c5d3-46e9-4c1e-9bab-bc22785de627}@#5a5a5a_0.00@#9b9b9b_0.00" x1="0" y1="0.5" x2="1" y2="0.5" spreadMethod="pad" gradientUnits="objectBoundingBox" gradientTransform="matrix(1,0,0,1,0,0)"><stop offset="0" stop-color="#5a5a5a" stop-opacity="1"/><stop offset="0.99999" stop-color="#9b9b9b" stop-opacity="0.721569"/></linearGradient></defs><defs/><defs/><defs id="defs6"><path id="path2" fill="#ffffff" fill-opacity="1" d="M 0.160324 5.13036 L 61.7247 5.13036 L 61.7247 91.3846 L 0.160324 91.3846 L 0.160324 5.13036 Z"/></defs><path id="path8" fill="#ffffff" fill-opacity="1" stroke="none" d="M 16.0324 29.6599 C 15.1907 22.4053 15.1907 15.1907 16.0324 9.57935 C 29.6599 -0.0801619 35.3113 11.1826 45.7324 9.57935 C 46.534 15.9923 46.534 24.0486 44.9307 28.8583 C 44.9307 32.8664 43.3275 35.2712 41.7243 37.6761 C 38.5178 40.8826 35.3113 43.2874 30.4615 43.2874 C 26.4534 43.2874 22.4453 40.8826 20.0405 37.6761 C 18.4372 35.2712 16.834 32.8664 16.0324 29.6599 M 9.57935 86.655 C 52.987 86.655 52.987 86.655 52.987 86.655 C 50.5822 90.6631 50.5822 90.6631 50.5822 90.6631 C 11.9842 90.6631 11.9842 90.6631 11.9842 90.6631 C 9.57935 86.655 9.57935 86.655 9.57935 86.655 M 55.3919 53.7486 C 60.2016 72.2259 60.2016 72.2259 60.2016 72.2259 C 61.8048 78.6388 61.0032 83.4485 53.7886 83.4485 C 52.1854 83.4485 52.1854 83.4485 52.1854 83.4485 C 52.1854 58.5583 52.1854 58.5583 52.1854 58.5583 C 32.9065 58.5583 32.9065 58.5583 32.9065 58.5583 C 38.5178 45.6923 38.5178 45.6923 38.5178 45.6923 C 40.121 44.089 40.121 44.089 40.121 44.089 C 51.3838 46.534 51.3838 46.534 51.3838 46.534 C 52.1854 46.534 52.1854 46.534 52.1854 46.534 C 52.1854 47.3356 52.1854 47.3356 52.1854 47.3356 C 53.7886 48.9388 54.5903 51.3437 55.3919 54.5502 C 55.3919 53.7486 55.3919 53.7486 55.3919 53.7486 M 10.381 83.4485 C 7.97611 83.4485 7.97611 83.4485 7.97611 83.4485 C 0.761538 83.4485 -0.0801619 78.6388 1.56316 72.2259 C 6.37287 53.7486 6.37287 53.7486 6.37287 53.7486 C 6.37287 51.3437 7.97611 48.9388 10.381 46.534 C 11.1826 46.534 11.1826 46.534 11.1826 46.534 C 21.6437 44.089 21.6437 44.089 21.6437 44.089 C 23.247 45.6923 23.247 45.6923 23.247 45.6923 C 29.6599 58.5583 29.6599 58.5583 29.6599 58.5583 C 10.381 58.5583 10.381 58.5583 10.381 58.5583 L 10.381 83.4485"/></svg>
